<svg width="16" height="16" viewBox="0 0 16 16" fill="none" xmlns="http://www.w3.org/2000/svg">
  <path
    d="M8.70001 2.61538C8.70001 1.72323 9.42324 1 10.3154 1H10.5846C11.4768 1 12.2 1.72323 12.2 2.61538V7.3H8.70001V2.61538Z"
    fill="#FFC249"
  />
  <path
    d="M13.3846 3.79993C14.2768 3.79993 15 4.52316 15 5.41531L15 5.68454C15 6.57669 14.2768 7.29993 13.3846 7.29993L8.7 7.29993L8.7 3.79993L13.3846 3.79993Z"
    fill="#FFC249"
  />
  <rect width="3.5" height="6.3" transform="matrix(1 0 0 -1 8.70001 15)" fill="#089BAB" />
  <rect width="3.5" height="6.3" transform="matrix(-4.37114e-08 -1 -1 4.37114e-08 15 12.2001)" fill="#089BAB" />
  <rect width="3.5" height="6.3" transform="matrix(-1 0 0 1 7.29999 1)" fill="#089BAB" />
  <rect width="3.5" height="6.3" transform="matrix(4.37114e-08 1 1 -4.37114e-08 1 3.79993)" fill="#089BAB" />
  <rect x="7.29999" y="15" width="3.5" height="6.3" transform="rotate(180 7.29999 15)" fill="#089BAB" />
  <rect x="1" y="12.2001" width="3.5" height="6.3" transform="rotate(-90 1 12.2001)" fill="#089BAB" />
</svg>
