<svg width="24" height="24" viewBox="0 0 24 24" fill="none" xmlns="http://www.w3.org/2000/svg">
<g clip-path="url(#clip0_31_377)">
<path d="M21.6923 0.923072H14.3077C13.9405 0.923072 13.5883 1.06896 13.3287 1.32865C13.069 1.58826 12.9231 1.94049 12.9231 2.30769V11.5385C12.9224 11.6611 12.9705 11.779 13.0569 11.8661L15.8262 14.6354C15.9133 14.7218 16.0312 14.7699 16.1539 14.7692H16.6154V16.1538C16.6162 16.4395 16.7053 16.7179 16.8706 16.9509C17.0358 17.1839 17.2691 17.3602 17.5385 17.4554V19.8462C17.5385 20.4582 17.2954 21.0451 16.8625 21.4779C16.4298 21.9107 15.8428 22.1538 15.2308 22.1538H8.3077C7.69566 22.1538 7.10871 21.9107 6.67594 21.4779C6.24311 21.0452 6.00001 20.4582 6.00001 19.8462V18.3969C6.39527 18.2949 6.74561 18.0646 6.99614 17.7423C7.24666 17.42 7.38333 17.0236 7.38462 16.6154V14.7692C7.38332 14.361 7.24666 13.9646 6.99614 13.6424C6.74561 13.32 6.39527 13.0897 6.00001 12.9877V8.96307L9.30001 5.7323C9.84735 5.20975 10.1571 4.486 10.1571 3.72923C10.1571 2.97245 9.84737 2.2487 9.30001 1.72615C8.80025 1.25285 8.15092 0.968931 7.46417 0.923442C6.77742 0.877938 6.09628 1.07373 5.53845 1.47692C4.97805 1.07675 4.2954 0.884931 3.60848 0.934611C2.92166 0.98437 2.27377 1.27248 1.77682 1.74923C1.22947 2.27178 0.919724 2.99553 0.919724 3.7523C0.919724 4.50908 1.22945 5.23283 1.77682 5.75538L5.07682 8.98615V13.0108C4.68531 13.1118 4.33779 13.3386 4.08769 13.6563C3.83751 13.9739 3.69855 14.365 3.6922 14.7692V16.6154C3.6935 17.0236 3.83016 17.42 4.08069 17.7423C4.33121 18.0646 4.68156 18.2949 5.07682 18.3969V19.8462C5.07682 20.703 5.41721 21.5248 6.02312 22.1306C6.62895 22.7365 7.45071 23.0769 8.30755 23.0769H15.2306C16.0875 23.0769 16.9093 22.7365 17.5151 22.1306C18.121 21.5247 18.4614 20.703 18.4614 19.8462V17.4554C18.7307 17.3602 18.964 17.1839 19.1292 16.9509C19.2945 16.7179 19.3836 16.4395 19.3844 16.1538V14.7692H19.846C19.9686 14.7699 20.0865 14.7218 20.1737 14.6354L22.9429 11.8661C23.0293 11.779 23.0775 11.6611 23.0767 11.5385V2.30769C23.0767 1.94047 22.9309 1.58826 22.6712 1.32865C22.4116 1.06897 22.0593 0.923072 21.6921 0.923072H21.6923ZM1.84616 3.7523C1.84429 3.24498 2.05125 2.75928 2.41847 2.40923C2.79477 2.04873 3.29582 1.84744 3.81693 1.84744C4.33804 1.84744 4.83909 2.04871 5.21539 2.40923C5.30143 2.49245 5.41646 2.53889 5.53616 2.53889C5.65587 2.53889 5.7709 2.49245 5.85693 2.40923C6.23323 2.04873 6.73428 1.84744 7.25539 1.84744C7.77651 1.84744 8.27755 2.04871 8.65385 2.40923C9.02373 2.75806 9.23338 3.24389 9.23338 3.7523C9.23338 4.26072 9.02375 4.74655 8.65385 5.09538L5.53847 8.12769L2.41847 5.07692C2.05587 4.73126 1.84934 4.25322 1.84616 3.7523ZM4.61539 16.6154V14.7692C4.61539 14.4394 4.79135 14.1347 5.07693 13.9698C5.36251 13.8049 5.71443 13.8049 6.00001 13.9698C6.28559 14.1347 6.46155 14.4394 6.46155 14.7692V16.6154C6.46155 16.9452 6.28558 17.2499 6.00001 17.4148C5.71443 17.5797 5.36251 17.5797 5.07693 17.4148C4.79135 17.2499 4.61539 16.9452 4.61539 16.6154ZM18.4615 16.1538C18.4615 16.3187 18.3736 16.4711 18.2308 16.5536C18.088 16.636 17.912 16.636 17.7692 16.5536C17.6264 16.4711 17.5385 16.3187 17.5385 16.1538V14.7692H18.4615V16.1538ZM19.6569 13.8462H16.3431L13.8462 11.3492V10.6154H15.2308C15.3956 10.6154 15.548 10.5274 15.6305 10.3846C15.7129 10.2418 15.7129 10.0659 15.6305 9.92307C15.548 9.78028 15.3956 9.6923 15.2308 9.6923H13.8462V8.30769H15.2308C15.3956 8.30769 15.548 8.21971 15.6305 8.07692C15.7129 7.93413 15.7129 7.75816 15.6305 7.61538C15.548 7.47259 15.3956 7.38461 15.2308 7.38461H13.8462V6H15.2308C15.3956 6 15.548 5.91202 15.6305 5.76923C15.7129 5.62644 15.7129 5.45047 15.6305 5.30769C15.548 5.1649 15.3956 5.07692 15.2308 5.07692H13.8462V3.6923H15.2308C15.3956 3.6923 15.548 3.60432 15.6305 3.46153C15.7129 3.31875 15.7129 3.14278 15.6305 3C15.548 2.85721 15.3956 2.76923 15.2308 2.76923H13.8462V2.30769C13.8462 2.18531 13.8948 2.06791 13.9814 1.98136C14.0679 1.89475 14.1853 1.84615 14.3077 1.84615H21.6923C21.8147 1.84615 21.9321 1.89475 22.0186 1.98136C22.1053 2.0679 22.1539 2.18531 22.1539 2.30769V9.6923H17.0769C16.9121 9.6923 16.7597 9.78028 16.6772 9.92307C16.5948 10.0659 16.5948 10.2418 16.6772 10.3846C16.7597 10.5274 16.9121 10.6154 17.0769 10.6154H22.1539V11.3492L19.6569 13.8462Z" fill="currentColor"/>
</g>
<defs>
<clipPath id="clip0_31_377">
<rect width="24" height="24" fill="white"/>
</clipPath>
</defs>
</svg>