<svg width="24" height="24" viewBox="0 0 24 24" xmlns="http://www.w3.org/2000/svg">
<path d="M4.79999 4.80002C4.79999 4.1635 5.05284 3.55306 5.50293 3.10297C5.95302 2.65288 6.56347 2.40002 7.19999 2.40002H16.8C17.4365 2.40002 18.047 2.65288 18.497 3.10297C18.9471 3.55306 19.2 4.1635 19.2 4.80002V12.3288L19.1784 12.3204C19.1279 11.9999 18.9918 11.699 18.7843 11.4496C18.5769 11.2001 18.3059 11.0113 18 10.9032V4.80002C18 4.48176 17.8736 4.17654 17.6485 3.9515C17.4235 3.72645 17.1182 3.60002 16.8 3.60002H7.19999C6.88173 3.60002 6.5765 3.72645 6.35146 3.9515C6.12642 4.17654 5.99999 4.48176 5.99999 4.80002V19.2C5.99999 19.5183 6.12642 19.8235 6.35146 20.0486C6.5765 20.2736 6.88173 20.4 7.19999 20.4H12.9324C13.2374 20.8537 13.6097 21.2583 14.0364 21.6H7.19999C6.56347 21.6 5.95302 21.3472 5.50293 20.8971C5.05284 20.447 4.79999 19.8365 4.79999 19.2V4.80002ZM18.0672 18.3984C17.9362 18.4869 17.789 18.5487 17.634 18.5802C17.479 18.6116 17.3194 18.6121 17.1642 18.5817C17.0091 18.5512 16.8615 18.4904 16.7299 18.4027C16.5983 18.315 16.4854 18.2022 16.3975 18.0707C16.3097 17.9393 16.2487 17.7917 16.2181 17.6366C16.1875 17.4815 16.1878 17.3218 16.219 17.1668C16.2503 17.0118 16.3119 16.8646 16.4003 16.7334C16.4886 16.6023 16.6021 16.49 16.734 16.4028C16.9985 16.2402 17.3156 16.1865 17.6189 16.2528C17.9222 16.3192 18.1879 16.5005 18.3604 16.7586C18.5328 17.0168 18.5984 17.3317 18.5436 17.6373C18.4887 17.9428 18.3175 18.2152 18.066 18.3972L18.0672 18.3984ZM21.5388 16.8H22.2C22.3591 16.8 22.5117 16.8632 22.6243 16.9758C22.7368 17.0883 22.8 17.2409 22.8 17.4C22.8 17.5592 22.7368 17.7118 22.6243 17.8243C22.5117 17.9368 22.3591 18 22.2 18H21.5388C21.409 18.8925 20.9944 19.7191 20.3567 20.3568C19.7191 20.9945 18.8924 21.4091 18 21.5388V22.2C18 22.3592 17.9368 22.5118 17.8243 22.6243C17.7117 22.7368 17.5591 22.8 17.4 22.8C17.2409 22.8 17.0882 22.7368 16.9757 22.6243C16.8632 22.5118 16.8 22.3592 16.8 22.2V21.5388C15.9076 21.4091 15.0809 20.9945 14.4432 20.3568C13.8055 19.7191 13.3909 18.8925 13.2612 18H12.6C12.4409 18 12.2882 17.9368 12.1757 17.8243C12.0632 17.7118 12 17.5592 12 17.4C12 17.2409 12.0632 17.0883 12.1757 16.9758C12.2882 16.8632 12.4409 16.8 12.6 16.8H13.2612C13.3909 15.9076 13.8055 15.081 14.4432 14.4433C15.0809 13.8056 15.9076 13.391 16.8 13.2612V12.6C16.8 12.4409 16.8632 12.2883 16.9757 12.1758C17.0882 12.0632 17.2409 12 17.4 12C17.5591 12 17.7117 12.0632 17.8243 12.1758C17.9368 12.2883 18 12.4409 18 12.6V13.2612C18.8924 13.391 19.7191 13.8056 20.3567 14.4433C20.9944 15.081 21.409 15.9076 21.5388 16.8ZM17.694 20.3856C18.0861 20.347 18.4667 20.2316 18.8141 20.0459C19.1616 19.8601 19.4691 19.6078 19.719 19.3033C19.969 18.9987 20.1565 18.6479 20.2708 18.2709C20.3852 17.8939 20.4242 17.4981 20.3856 17.106C20.347 16.714 20.2315 16.3333 20.0458 15.9859C19.8601 15.6384 19.6078 15.3309 19.3032 15.081C18.9987 14.8311 18.6479 14.6436 18.2709 14.5292C17.8939 14.4148 17.4981 14.3758 17.106 14.4144C16.3142 14.4924 15.5857 14.8817 15.081 15.4968C14.5762 16.1118 14.3364 16.9022 14.4144 17.694C14.4924 18.4859 14.8817 19.2143 15.4967 19.7191C16.1118 20.2238 16.9022 20.4636 17.694 20.3856Z" fill="currentColor"/>
</svg>
