<svg width="24" height="24" viewBox="0 0 24 24" xmlns="http://www.w3.org/2000/svg">
  <path
    d="M8.16279 12C8.16279 11.5959 8.50639 11.2683 8.93023 11.2683L20.5643 11.2683L18.5801 9.06162C18.3043 8.75481 18.3415 8.29288 18.6633 8.02987C18.9851 7.76685 19.4696 7.80234 19.7454 8.10914L22.8152 11.5232C22.9379 11.6597 22.9995 11.8285 23 11.9974L23 12C23 12.1903 22.9238 12.3636 22.7989 12.4938L19.7455 15.8908C19.4697 16.1976 18.9852 16.2332 18.6634 15.9702C18.3416 15.7073 18.3043 15.2454 18.5801 14.9385L20.5636 12.7317L8.93023 12.7317C8.50639 12.7317 8.16279 12.4041 8.16279 12Z"
    fill="currentColor"
  />
  <path
    d="M1 6.42399C1 3.95825 3.16033 2 5.76987 2L11.0662 2C13.6767 2 15.8372 3.95812 15.8372 6.42399L15.8372 7.35884C15.8372 7.76295 15.4936 8.09055 15.0698 8.09055C14.6459 8.09055 14.3023 7.76295 14.3023 7.35884L14.3023 6.42399C14.3023 4.81182 12.8775 3.46341 11.0662 3.46341L5.76987 3.46341C3.9598 3.46341 2.53488 4.81169 2.53488 6.42399L2.53488 17.576C2.53488 19.1883 3.9598 20.5366 5.76987 20.5366L11.0771 20.5366C12.8822 20.5366 14.3023 19.1929 14.3023 17.587L14.3023 16.6422C14.3023 16.2381 14.6459 15.9105 15.0698 15.9105C15.4936 15.9105 15.8372 16.2381 15.8372 16.6422L15.8372 17.587C15.8372 20.0471 13.6808 22 11.0771 22L5.76987 22C3.16033 22 0.999999 20.0418 0.999999 17.576L1 6.42399Z"
    fill="currentColor"
  />
</svg>
