<svg width="24" height="24" viewBox="0 0 24 24" xmlns="http://www.w3.org/2000/svg">
<path d="M7.67773 19.7515C6.78125 19.7515 6.10059 19.5218 5.63574 19.0625C5.17643 18.6087 4.94678 17.9391 4.94678 17.0537V7.53271C4.94678 6.64176 5.17643 5.9694 5.63574 5.51562C6.10059 5.06185 6.78125 4.83496 7.67773 4.83496H16.9165L15.2896 6.46191H7.77734C7.38997 6.46191 7.09391 6.56429 6.88916 6.76904C6.68441 6.96826 6.58203 7.26986 6.58203 7.67383V16.9126C6.58203 17.3166 6.68441 17.6182 6.88916 17.8174C7.09391 18.0166 7.38997 18.1162 7.77734 18.1162H17.2485C17.5308 18.1162 17.7632 18.0166 17.9458 17.8174C18.134 17.6182 18.228 17.3166 18.228 16.9126V9.4751L19.8633 7.83984V17.0537C19.8633 17.9391 19.6419 18.6087 19.1992 19.0625C18.762 19.5218 18.145 19.7515 17.3481 19.7515H7.67773ZM10.8071 14.1982C10.7131 14.237 10.6273 14.2176 10.5498 14.1401C10.4723 14.0571 10.453 13.9686 10.4917 13.8745L11.2388 12.231L18.8091 4.66064L20.0791 5.91406L12.5005 13.4844L10.8071 14.1982ZM20.71 5.2915L19.4399 4.01318L20.021 3.44043C20.1759 3.29102 20.3558 3.20801 20.5605 3.19141C20.7708 3.1748 20.9451 3.23568 21.0835 3.37402L21.2993 3.59814C21.4598 3.75309 21.5373 3.93294 21.5317 4.1377C21.5317 4.34245 21.4515 4.52783 21.291 4.69385L20.71 5.2915Z" fill="currentColor"/>
</svg>
