<svg width="24" height="24" viewBox="0 0 24 24" xmlns="http://www.w3.org/2000/svg">
<path d="M12.4615 1.00015C12.4615 0.745252 12.2549 0.538614 12 0.538614C11.7451 0.538614 11.5385 0.745252 11.5385 1.00015H12.4615ZM11.6736 8.71112C11.8539 8.89137 12.1461 8.89137 12.3264 8.71112L15.2636 5.77391C15.4438 5.59367 15.4438 5.30144 15.2636 5.1212C15.0833 4.94096 14.7911 4.94096 14.6109 5.1212L12 7.73205L9.38914 5.1212C9.2089 4.94096 8.91667 4.94096 8.73643 5.1212C8.55619 5.30144 8.55619 5.59367 8.73643 5.77391L11.6736 8.71112ZM11.5385 1.00015V8.38477H12.4615V1.00015H11.5385Z" fill="currentColor"/>
<path d="M4.18813 12.2051C4.65131 11.7272 5.27639 11.4615 5.925 11.4615H18.075C18.3965 11.4615 18.7151 11.5268 19.013 11.6541C19.3108 11.7814 19.5824 11.9684 19.8119 12.2051C20.0413 12.4419 20.2241 12.7237 20.349 13.0349C20.474 13.3461 20.5385 13.6802 20.5385 14.0179V14.717H3.46154V14.0179C3.46154 13.3353 3.72447 12.6835 4.18813 12.2051ZM3.46154 20.9821V17.033H20.5385V20.9821C20.5385 21.3198 20.474 21.6539 20.349 21.9651C20.2241 22.2763 20.0413 22.5581 19.8119 22.7949C19.5824 23.0316 19.3108 23.2186 19.013 23.3459C18.7151 23.4732 18.3965 23.5385 18.075 23.5385H5.925C5.27639 23.5385 4.65131 23.2728 4.18813 22.7949C3.72447 22.3165 3.46154 21.6647 3.46154 20.9821ZM17.625 19.3599H15.375C15.0688 19.3599 14.7782 19.4855 14.5663 19.7042C14.3548 19.9224 14.2385 20.2153 14.2385 20.5179C14.2385 20.8204 14.3548 21.1133 14.5663 21.3315C14.7782 21.5502 15.0688 21.6758 15.375 21.6758H17.625C17.9312 21.6758 18.2218 21.5502 18.4337 21.3315C18.6452 21.1133 18.7615 20.8204 18.7615 20.5179C18.7615 20.2153 18.6452 19.9224 18.4337 19.7042C18.2218 19.4855 17.9312 19.3599 17.625 19.3599Z" fill="currentColor" stroke="currentColor" stroke-width="0.923077"/>
</svg>
