<svg width="16" height="15" viewBox="0 0 16 15" fill="none" xmlns="http://www.w3.org/2000/svg">
  <g clip-path="url(#clip0_52_110)">
    <path
      d="M7.52447 0.463519C7.67415 0.00286338 8.32585 0.00286254 8.47553 0.463518L9.90837 4.87335C9.97531 5.07936 10.1673 5.21884 10.3839 5.21884H15.0207C15.505 5.21884 15.7064 5.83864 15.3146 6.12335L11.5633 8.84877C11.3881 8.97609 11.3148 9.20178 11.3817 9.40779L12.8145 13.8176C12.9642 14.2783 12.437 14.6613 12.0451 14.3766L8.29389 11.6512C8.11865 11.5239 7.88135 11.5239 7.70611 11.6512L3.95488 14.3766C3.56303 14.6613 3.03578 14.2783 3.18546 13.8176L4.6183 9.40779C4.68524 9.20178 4.61191 8.97609 4.43667 8.84877L0.685444 6.12335C0.293587 5.83865 0.494975 5.21884 0.979336 5.21884H5.6161C5.83272 5.21884 6.02469 5.07936 6.09163 4.87335L7.52447 0.463519Z"
      fill="#E5EBEC" />
    <g clip-path="url(#clip1_52_110)">
      <path
        d="M7.52447 0.463519C7.67415 0.00286338 8.32585 0.00286254 8.47553 0.463518L9.90837 4.87335C9.97531 5.07936 10.1673 5.21884 10.3839 5.21884H15.0207C15.505 5.21884 15.7064 5.83864 15.3146 6.12335L11.5633 8.84877C11.3881 8.97609 11.3148 9.20178 11.3817 9.40779L12.8145 13.8176C12.9642 14.2783 12.437 14.6613 12.0451 14.3766L8.29389 11.6512C8.11865 11.5239 7.88135 11.5239 7.70611 11.6512L3.95488 14.3766C3.56303 14.6613 3.03578 14.2783 3.18546 13.8176L4.6183 9.40779C4.68524 9.20178 4.61191 8.97609 4.43667 8.84877L0.685444 6.12335C0.293587 5.83865 0.494975 5.21884 0.979336 5.21884H5.6161C5.83272 5.21884 6.02469 5.07936 6.09163 4.87335L7.52447 0.463519Z"
        fill="currentColor" />
    </g>
  </g>
  <defs>
    <clipPath id="clip0_52_110">
      <rect width="16" height="15" fill="white" />
    </clipPath>
    <clipPath id="clip1_52_110">
      <rect width="8" height="15" fill="white" />
    </clipPath>
  </defs>
</svg>