<svg width="24" height="24" fill="none" viewBox="0 0 24 24" xmlns="http://www.w3.org/2000/svg">
  <path
    d="M19 7L17.657 8.343M17.657 8.343C16.1567 6.84267 14.1218 5.99979 12 5.99979C9.87821 5.99979 7.84333 6.84267 6.343 8.343C4.84267 9.84333 3.99979 11.8782 3.99979 14C3.99979 16.1218 4.84267 18.1567 6.343 19.657C7.84333 21.1573 9.87821 22.0002 12 22.0002C14.1218 22.0002 16.1567 21.1573 17.657 19.657C19.1573 18.1567 20.0002 16.1218 20.0002 14C20.0002 11.8782 19.1573 9.84333 17.657 8.343ZM12 10V14M9 3H15"
    stroke="currentColor"
    stroke-width="1.5"
    stroke-linecap="round"
    stroke-linejoin="round"
  />
</svg>
