<svg width="24" height="24" viewBox="0 0 24 24" fill="none" xmlns="http://www.w3.org/2000/svg">
  <path
    d="M4.84741 9.2582C4.84018 11.6289 6.68564 13.5611 8.97313 13.5691H8.97496H9.00033C11.2956 13.5691 13.1525 11.6373 13.1525 9.25918C13.1525 6.8809 11.2954 4.95 9.00033 4.95C6.70569 4.95 4.84792 6.88021 4.84741 9.2582ZM5.97305 9.25927C5.97305 7.52092 7.33026 6.11489 9.00033 6.11489C10.6703 6.11489 12.0269 7.52068 12.0269 9.25918C12.0269 10.9978 10.6701 12.4042 9.00033 12.4042H8.97619C8.97623 12.4042 8.97615 12.4042 8.97619 12.4042C7.31425 12.3979 5.96739 10.9925 5.97304 9.26115L5.97305 9.25927ZM9.00043 14.6139C7.24605 14.6139 5.55427 14.7425 4.2834 15.1625C3.64599 15.3731 3.06865 15.6715 2.64429 16.1057C2.20437 16.5558 1.95 17.1321 1.95 17.8226C1.95 18.5118 2.20211 19.0885 2.63965 19.5405C3.06201 19.9768 3.63735 20.278 4.27405 20.4913C5.54329 20.9166 7.2357 21.05 9.00043 21.05C10.7549 21.05 12.4464 20.9212 13.7171 20.5011C14.3544 20.2904 14.9316 19.992 15.3559 19.5578C15.7957 19.1078 16.05 18.5316 16.05 17.8413C16.05 17.1523 15.7979 16.5757 15.3605 16.1238C14.9383 15.6876 14.363 15.3863 13.7264 15.1729C12.4574 14.7475 10.7652 14.6139 9.00043 14.6139ZM3.12692 17.8226C3.12692 17.473 3.24464 17.2043 3.47171 16.972C3.71436 16.7237 4.099 16.5022 4.6414 16.3229C5.73013 15.9631 7.26933 15.832 9.00043 15.832C10.74 15.832 12.2783 15.9679 13.3638 16.3318C13.9044 16.513 14.2874 16.7363 14.5291 16.986C14.7555 17.2199 14.8731 17.4905 14.8731 17.8413C14.8731 18.1907 14.7554 18.4593 14.5284 18.6916C14.2858 18.9398 13.9012 19.1614 13.359 19.3407C12.2704 19.7006 10.7315 19.8319 9.00043 19.8319C7.2608 19.8319 5.72223 19.6962 4.63658 19.3324C4.09584 19.1512 3.71274 18.9279 3.47104 18.6782C3.24453 18.4443 3.12692 18.1737 3.12692 17.8226Z"
    fill="currentColor" />
  <path
    d="M4.84741 9.2582C4.84018 11.6289 6.68564 13.5611 8.97313 13.5691H8.97496H9.00033C11.2956 13.5691 13.1525 11.6373 13.1525 9.25918C13.1525 6.8809 11.2954 4.95 9.00033 4.95C6.70569 4.95 4.84792 6.88021 4.84741 9.2582ZM4.84741 9.2582C4.84741 9.25817 4.84741 9.25822 4.84741 9.2582ZM4.84741 9.2582L4.89741 9.25828M8.9733 13.5191H8.97504M8.97619 12.4042H9.00033C10.6701 12.4042 12.0269 10.9978 12.0269 9.25918C12.0269 7.52068 10.6703 6.11489 9.00033 6.11489C7.33026 6.11489 5.97305 7.52092 5.97305 9.25927L5.97304 9.26115C5.96739 10.9925 7.31425 12.3979 8.97619 12.4042ZM8.97619 12.4042C8.97615 12.4042 8.97623 12.4042 8.97619 12.4042ZM9.00043 14.6139C7.24605 14.6139 5.55427 14.7425 4.2834 15.1625C3.64599 15.3731 3.06865 15.6715 2.64429 16.1057C2.20437 16.5558 1.95 17.1321 1.95 17.8226C1.95 18.5118 2.20211 19.0885 2.63965 19.5405C3.06201 19.9768 3.63735 20.278 4.27405 20.4913C5.54329 20.9166 7.2357 21.05 9.00043 21.05C10.7549 21.05 12.4464 20.9212 13.7171 20.5011C14.3544 20.2904 14.9316 19.992 15.3559 19.5578C15.7957 19.1078 16.05 18.5316 16.05 17.8413C16.05 17.1523 15.7979 16.5757 15.3605 16.1238C14.9383 15.6876 14.363 15.3863 13.7264 15.1729C12.4574 14.7475 10.7652 14.6139 9.00043 14.6139ZM3.12692 17.8226C3.12692 17.473 3.24464 17.2043 3.47171 16.972C3.71436 16.7237 4.099 16.5022 4.6414 16.3229C5.73013 15.9631 7.26933 15.832 9.00043 15.832C10.74 15.832 12.2783 15.9679 13.3638 16.3318C13.9044 16.513 14.2874 16.7363 14.5291 16.986C14.7555 17.2199 14.8731 17.4905 14.8731 17.8413C14.8731 18.1907 14.7554 18.4593 14.5284 18.6916C14.2858 18.9398 13.9012 19.1614 13.359 19.3407C12.2704 19.7006 10.7315 19.8319 9.00043 19.8319C7.2608 19.8319 5.72223 19.6962 4.63658 19.3324C4.09584 19.1512 3.71274 18.9279 3.47104 18.6782C3.24453 18.4443 3.12692 18.1737 3.12692 17.8226Z"
    stroke="currentColor" stroke-width="0.1" stroke-linecap="round" stroke-linejoin="round" />
  <path fill-rule="evenodd" clip-rule="evenodd"
    d="M11.4631 4.09972C12.1766 2.84306 13.4938 2 15.0004 2C17.2661 2 19.1025 3.90673 19.1025 6.25918C19.1025 8.61149 17.2662 10.5191 15.0004 10.5191H14.9751H14.9733C14.5825 10.5178 14.2047 10.4595 13.8471 10.3519C13.9267 10.0061 13.9765 9.64886 13.9935 9.28309C14.3017 9.39282 14.6322 9.45294 14.976 9.45424H15.0004C16.6995 9.45424 18.0769 8.02366 18.0769 6.25918C18.0769 4.49485 16.6996 3.06489 15.0004 3.06489C13.8133 3.06489 12.7831 3.76268 12.2698 4.7847C12.0219 4.53357 11.7519 4.3042 11.4631 4.09972ZM17.8884 17.842C18.5509 17.7565 19.1644 17.6311 19.7014 17.4536C20.3345 17.2443 20.9035 16.9492 21.3201 16.5229C21.7511 16.0819 22 15.5181 22 14.8413C22 14.1657 21.7533 13.6014 21.3246 13.1586C20.9099 12.7302 20.3429 12.4323 19.7106 12.2203C18.4496 11.7976 16.7641 11.6639 15.0005 11.6639C14.4413 11.6639 13.8892 11.677 13.3554 11.7083C13.139 12.1354 12.873 12.5331 12.565 12.8939C13.3077 12.8151 14.1306 12.782 15.0005 12.782C16.7411 12.782 18.2862 12.9178 19.3797 13.2844C19.9246 13.467 20.3158 13.6937 20.565 13.9512C20.8003 14.1943 20.9231 14.4772 20.9231 14.8413C20.9231 15.2041 20.8001 15.4851 20.5642 15.7265C20.3139 15.9826 19.9212 16.2075 19.3747 16.3882C18.8613 16.5579 18.2495 16.6769 17.5661 16.7555C17.7063 17.1027 17.8149 17.4661 17.8884 17.842Z"
    fill="currentColor" />
  <mask id="mask0_144_155" style="mask-type:luminance" maskUnits="userSpaceOnUse" x="10" y="1"
    width="13" height="18">
    <path d="M22.4631 1H10.4631V19H22.4631V1Z" fill="white" />
    <path fill-rule="evenodd" clip-rule="evenodd"
      d="M11.4631 4.09972C12.1766 2.84306 13.4938 2 15.0004 2C17.2661 2 19.1025 3.90673 19.1025 6.25918C19.1025 8.61149 17.2662 10.5191 15.0004 10.5191H14.9751H14.9733C14.5825 10.5178 14.2047 10.4595 13.8471 10.3519C13.9267 10.0061 13.9765 9.64886 13.9935 9.28309C14.3017 9.39282 14.6322 9.45294 14.976 9.45424H15.0004C16.6995 9.45424 18.0769 8.02366 18.0769 6.25918C18.0769 4.49485 16.6996 3.06489 15.0004 3.06489C13.8133 3.06489 12.7831 3.76268 12.2698 4.7847C12.0219 4.53357 11.7519 4.3042 11.4631 4.09972ZM17.8884 17.842C18.5509 17.7565 19.1644 17.6311 19.7014 17.4536C20.3345 17.2443 20.9035 16.9492 21.3201 16.5229C21.7511 16.0819 22 15.5181 22 14.8413C22 14.1657 21.7533 13.6014 21.3246 13.1586C20.9099 12.7302 20.3429 12.4323 19.7106 12.2203C18.4496 11.7976 16.7641 11.6639 15.0005 11.6639C14.4413 11.6639 13.8892 11.677 13.3554 11.7083C13.139 12.1354 12.873 12.5331 12.565 12.8939C13.3077 12.8151 14.1306 12.782 15.0005 12.782C16.7411 12.782 18.2862 12.9178 19.3797 13.2844C19.9246 13.467 20.3158 13.6937 20.565 13.9512C20.8003 14.1943 20.9231 14.4772 20.9231 14.8413C20.9231 15.2041 20.8001 15.4851 20.5642 15.7265C20.3139 15.9826 19.9212 16.2075 19.3747 16.3882C18.8613 16.5579 18.2495 16.6769 17.5661 16.7555C17.7063 17.1027 17.8149 17.4661 17.8884 17.842Z"
      fill="currentColor" />
  </mask>
  <g mask="url(#mask0_144_155)">
    <path
      d="M11.4631 4.09972L11.2892 4.00097C11.2385 4.09033 11.2637 4.20358 11.3476 4.26295L11.4631 4.09972ZM13.8471 10.3519L13.6522 10.307C13.6286 10.4096 13.6886 10.513 13.7895 10.5434L13.8471 10.3519ZM13.9935 9.28309L14.0605 9.09467C14.0008 9.07342 13.9346 9.08171 13.882 9.11703C13.8294 9.15235 13.7966 9.21051 13.7937 9.27381L13.9935 9.28309ZM12.2698 4.7847L12.1275 4.92522C12.1728 4.97108 12.2374 4.99231 12.3011 4.98225C12.3647 4.97218 12.4196 4.93205 12.4486 4.87446L12.2698 4.7847ZM17.8884 17.842L17.6921 17.8803C17.7123 17.9838 17.8094 18.0538 17.9139 18.0403L17.8884 17.842ZM13.3554 11.7083L13.3437 11.5087C13.2727 11.5129 13.2092 11.5545 13.177 11.6179L13.3554 11.7083ZM12.565 12.8939L12.4129 12.764C12.3598 12.8263 12.3499 12.9146 12.3881 12.9871C12.4262 13.0595 12.5047 13.1014 12.5861 13.0927L12.565 12.8939ZM17.5661 16.7555L17.5433 16.5568C17.4812 16.5639 17.4261 16.5996 17.3942 16.6533C17.3623 16.707 17.3573 16.7725 17.3806 16.8304L17.5661 16.7555ZM15.0004 1.8C13.4164 1.8 12.0355 2.68657 11.2892 4.00097L11.6371 4.19847C12.3178 2.99956 13.5712 2.2 15.0004 2.2V1.8ZM19.3025 6.25918C19.3025 3.80342 17.3836 1.8 15.0004 1.8V2.2C17.1486 2.2 18.9025 4.01004 18.9025 6.25918H19.3025ZM15.0004 10.7191C17.3838 10.7191 19.3025 8.71475 19.3025 6.25918H18.9025C18.9025 8.50824 17.1487 10.3191 15.0004 10.3191V10.7191ZM14.9747 10.7191H15.0004V10.3191H14.9751L14.9747 10.7191ZM14.9726 10.7191H14.9747L14.9751 10.3191H14.9737L14.9726 10.7191ZM13.7895 10.5434C14.1653 10.6565 14.5623 10.7177 14.9726 10.7191L14.9737 10.3191C14.6025 10.3178 14.2441 10.2625 13.9047 10.1604L13.7895 10.5434ZM14.042 10.3968C14.1243 10.0393 14.1757 9.6702 14.1932 9.29236L13.7937 9.27381C13.7772 9.62751 13.7292 9.97282 13.6522 10.307L14.042 10.3968ZM14.9768 9.25424C14.6559 9.25303 14.3479 9.19696 14.0605 9.09467L13.9264 9.4715C14.2556 9.58869 14.6084 9.65286 14.9753 9.65424L14.9768 9.25424ZM15.0004 9.25424H14.9768L14.9753 9.65424H15.0004V9.25424ZM17.8769 6.25918C17.8769 7.9204 16.582 9.25424 15.0004 9.25424V9.65424C16.817 9.65424 18.2769 8.12692 18.2769 6.25918H17.8769ZM15.0004 3.26489C16.5822 3.26489 17.8769 4.59816 17.8769 6.25918H18.2769C18.2769 4.39154 16.8171 2.86489 15.0004 2.86489V3.26489ZM12.4486 4.87446C12.9305 3.91472 13.8947 3.26489 15.0004 3.26489V2.86489C13.7319 2.86489 12.6356 3.61064 12.0911 4.69494L12.4486 4.87446ZM12.4122 4.64418C12.156 4.38474 11.8771 4.14776 11.5787 3.93649L11.3476 4.26295C11.6268 4.46064 11.8878 4.6824 12.1275 4.92522L12.4122 4.64418ZM17.9139 18.0403C18.5848 17.9538 19.2115 17.8262 19.7642 17.6435L19.6387 17.2637C19.1172 17.4361 18.5171 17.5592 17.8628 17.6436L17.9139 18.0403ZM19.7642 17.6435C20.4141 17.4286 21.016 17.1203 21.4632 16.6627L21.1771 16.3831C20.791 16.7781 20.2549 17.0599 19.6387 17.2637L19.7642 17.6435ZM21.4632 16.6627C21.9296 16.1854 22.2 15.5719 22.2 14.8413H21.8C21.8 15.4644 21.5726 15.9784 21.1771 16.3831L21.4632 16.6627ZM22.2 14.8413C22.2 14.1123 21.9321 13.4986 21.4683 13.0195L21.1809 13.2977C21.5744 13.7042 21.8 14.219 21.8 14.8413H22.2ZM21.4683 13.0195C21.0233 12.5597 20.4235 12.2484 19.7742 12.0307L19.647 12.4099C20.2624 12.6162 20.7966 12.9007 21.1809 13.2977L21.4683 13.0195ZM19.7742 12.0307C18.4811 11.5972 16.7686 11.4639 15.0005 11.4639V11.8639C16.7596 11.8639 18.4181 11.998 19.647 12.4099L19.7742 12.0307ZM15.0005 11.4639C14.4383 11.4639 13.8821 11.4771 13.3437 11.5087L13.3672 11.908C13.8962 11.8769 14.4444 11.8639 15.0005 11.8639V11.4639ZM12.7171 13.0237C13.0353 12.651 13.3102 12.2401 13.5338 11.7987L13.177 11.6179C12.9679 12.0307 12.7107 12.4152 12.4129 12.764L12.7171 13.0237ZM12.5861 13.0927C13.3197 13.0149 14.1352 12.982 15.0005 12.982V12.582C14.1259 12.582 13.2956 12.6152 12.5439 12.695L12.5861 13.0927ZM15.0005 12.982C16.7367 12.982 18.2548 13.1182 19.3161 13.474L19.4433 13.0947C18.3177 12.7174 16.7456 12.582 15.0005 12.582V12.982ZM19.3161 13.474C19.844 13.651 20.2024 13.8642 20.4213 14.0903L20.7087 13.8121C20.4291 13.5232 20.0051 13.2831 19.4433 13.0947L19.3161 13.474ZM20.4213 14.0903C20.6214 14.297 20.7231 14.5304 20.7231 14.8413H21.1231C21.1231 14.4239 20.9792 14.0915 20.7087 13.8121L20.4213 14.0903ZM20.7231 14.8413C20.7231 15.1504 20.6215 15.3817 20.4211 15.5867L20.7072 15.8663C20.9787 15.5886 21.1231 15.2577 21.1231 14.8413H20.7231ZM20.4211 15.5867C20.2015 15.8115 19.8416 16.0231 19.3119 16.1983L19.4375 16.578C20.0008 16.3918 20.4264 16.1536 20.7072 15.8663L20.4211 15.5867ZM19.3119 16.1983C18.8158 16.3623 18.2184 16.4792 17.5433 16.5568L17.589 16.9542C18.2805 16.8747 18.9068 16.7535 19.4375 16.578L19.3119 16.1983ZM18.0846 17.8036C18.0087 17.4151 17.8964 17.0395 17.7516 16.6806L17.3806 16.8304C17.5161 17.1659 17.621 17.517 17.6921 17.8803L18.0846 17.8036Z"
      fill="currentColor" />
  </g>
</svg>